<mxfile host="app.diagrams.net" agent="Mozilla/5.0 (Windows NT 10.0; Win64; x64) AppleWebKit/537.36 (KHTML, like Gecko) Chrome/138.0.0.0 Safari/537.36 Edg/138.0.0.0" version="27.2.0">
  <diagram name="第 1 页" id="bzdR7J1jdhL8hdASVkBF">
    <mxGraphModel dx="1742" dy="-4125" grid="1" gridSize="10" guides="1" tooltips="1" connect="1" arrows="1" fold="1" page="1" pageScale="1" pageWidth="827" pageHeight="1169" math="0" shadow="0">
      <root>
        <mxCell id="0" />
        <mxCell id="1" parent="0" />
        <mxCell id="NwvVjqSKLJ-2JlfgX2zN-2" value="" style="rounded=0;whiteSpace=wrap;html=1;fillColor=none;strokeColor=#0000FF;strokeWidth=2;shadow=1;" parent="1" vertex="1">
          <mxGeometry x="-650" y="4843" width="680.91" height="444" as="geometry" />
        </mxCell>
        <mxCell id="NwvVjqSKLJ-2JlfgX2zN-3" value="" style="rounded=1;whiteSpace=wrap;html=1;fontSize=8;fillColor=#66B2FF;strokeColor=#0e8088;shadow=1;fontStyle=1;labelBackgroundColor=#E6D0DE;" parent="1" vertex="1">
          <mxGeometry x="-619.56" y="5050" width="621" height="128" as="geometry" />
        </mxCell>
        <mxCell id="NwvVjqSKLJ-2JlfgX2zN-4" value="" style="rounded=1;whiteSpace=wrap;html=1;fontSize=8;fillColor=#BBB9CB;strokeColor=#56517e;shadow=1;fontStyle=1" parent="1" vertex="1">
          <mxGeometry x="-617.56" y="5197" width="621" height="76" as="geometry" />
        </mxCell>
        <mxCell id="NwvVjqSKLJ-2JlfgX2zN-7" value="&lt;span&gt;&lt;font style=&quot;font-size: 12px;&quot;&gt;押解任务识智能识别&lt;/font&gt;&lt;/span&gt;" style="rounded=1;whiteSpace=wrap;html=1;fontSize=8;fontStyle=1" parent="1" vertex="1">
          <mxGeometry x="-533" y="5211" width="120" height="50" as="geometry" />
        </mxCell>
        <mxCell id="NwvVjqSKLJ-2JlfgX2zN-13" value="数据及业务层" style="text;html=1;align=center;verticalAlign=middle;whiteSpace=wrap;rounded=0;fontStyle=1" parent="1" vertex="1">
          <mxGeometry x="-622.06" y="5197" width="102.06" height="30" as="geometry" />
        </mxCell>
        <mxCell id="NwvVjqSKLJ-2JlfgX2zN-15" value="平台层" style="text;html=1;align=center;verticalAlign=middle;whiteSpace=wrap;rounded=0;fontColor=#000000;fontStyle=1" parent="1" vertex="1">
          <mxGeometry x="-612.06" y="5050" width="60" height="30" as="geometry" />
        </mxCell>
        <mxCell id="NwvVjqSKLJ-2JlfgX2zN-16" value="" style="rounded=1;whiteSpace=wrap;html=1;dashed=1;dashPattern=1 1;fillColor=none;strokeColor=light-dark(#ffffff, #ededed);fontStyle=1" parent="1" vertex="1">
          <mxGeometry x="-590.81" y="5080" width="564" height="80" as="geometry" />
        </mxCell>
        <mxCell id="NwvVjqSKLJ-2JlfgX2zN-23" value="&lt;font style=&quot;font-size: 12px;&quot;&gt;远程控制&lt;/font&gt;&lt;div&gt;&lt;font style=&quot;font-size: 12px;&quot;&gt;（设备锁止/控制）&lt;/font&gt;&lt;/div&gt;" style="rounded=1;whiteSpace=wrap;html=1;fontSize=8;fontStyle=1;flipH=1;" parent="1" vertex="1">
          <mxGeometry x="-306" y="5100.31" width="106.69" height="39.38" as="geometry" />
        </mxCell>
        <mxCell id="NwvVjqSKLJ-2JlfgX2zN-24" value="&lt;font style=&quot;font-size: 12px;&quot;&gt;操作记录&lt;/font&gt;&lt;div&gt;&lt;font style=&quot;font-size: 12px;&quot;&gt;（过程留痕）&lt;/font&gt;&lt;/div&gt;" style="rounded=1;whiteSpace=wrap;html=1;fontSize=8;fontStyle=1;flipH=1;" parent="1" vertex="1">
          <mxGeometry x="-179.99999999999994" y="5100.31" width="130" height="39.38" as="geometry" />
        </mxCell>
        <mxCell id="NwvVjqSKLJ-2JlfgX2zN-33" value="" style="rounded=1;whiteSpace=wrap;html=1;fontSize=8;fillColor=#BBB9CB;strokeColor=#56517e;shadow=1;fontStyle=1" parent="1" vertex="1">
          <mxGeometry x="-622.06" y="4947" width="621" height="84" as="geometry" />
        </mxCell>
        <mxCell id="NwvVjqSKLJ-2JlfgX2zN-34" value="通信层" style="text;html=1;align=center;verticalAlign=middle;whiteSpace=wrap;rounded=0;fontColor=#000000;fontStyle=1" parent="1" vertex="1">
          <mxGeometry x="-614.56" y="4947.66" width="60" height="30" as="geometry" />
        </mxCell>
        <mxCell id="NwvVjqSKLJ-2JlfgX2zN-35" value="&lt;font style=&quot;font-size: 12px;&quot;&gt;4G-CAT1通信&lt;/font&gt;" style="rounded=1;whiteSpace=wrap;html=1;fontSize=8;fontStyle=1;fontColor=default;" parent="1" vertex="1">
          <mxGeometry x="-609.69" y="4975" width="122.88" height="42" as="geometry" />
        </mxCell>
        <mxCell id="NwvVjqSKLJ-2JlfgX2zN-36" value="&lt;font style=&quot;font-size: 12px;&quot;&gt;UWB通信&lt;/font&gt;" style="rounded=1;whiteSpace=wrap;html=1;fontSize=8;fontStyle=1;fontColor=default;" parent="1" vertex="1">
          <mxGeometry x="-332.56" y="4974.345" width="89.56" height="43.31" as="geometry" />
        </mxCell>
        <mxCell id="NwvVjqSKLJ-2JlfgX2zN-37" value="&lt;font style=&quot;font-size: 12px;&quot;&gt;MQTT通信&lt;/font&gt;" style="rounded=1;whiteSpace=wrap;html=1;fontSize=8;fontStyle=1;fontColor=default;" parent="1" vertex="1">
          <mxGeometry x="-217.56" y="4974" width="89.81" height="44" as="geometry" />
        </mxCell>
        <mxCell id="NwvVjqSKLJ-2JlfgX2zN-39" value="" style="rounded=1;whiteSpace=wrap;html=1;fontSize=8;fillColor=#BBB9CB;strokeColor=#56517e;shadow=1;fontStyle=1" parent="1" vertex="1">
          <mxGeometry x="-622.06" y="4855" width="621" height="71" as="geometry" />
        </mxCell>
        <mxCell id="NwvVjqSKLJ-2JlfgX2zN-40" value="终端层" style="text;html=1;align=center;verticalAlign=middle;whiteSpace=wrap;rounded=0;fontColor=#000000;fontStyle=1" parent="1" vertex="1">
          <mxGeometry x="-614.56" y="4855.66" width="60" height="30" as="geometry" />
        </mxCell>
        <mxCell id="NwvVjqSKLJ-2JlfgX2zN-41" value="&lt;font style=&quot;font-size: 12px;&quot;&gt;警察终端&lt;/font&gt;" style="rounded=1;whiteSpace=wrap;html=1;fontSize=8;fontStyle=1" parent="1" vertex="1">
          <mxGeometry x="-520" y="4870" width="130.69" height="43.66" as="geometry" />
        </mxCell>
        <mxCell id="NwvVjqSKLJ-2JlfgX2zN-42" value="&lt;font style=&quot;font-size: 12px;&quot;&gt;犯人终端&lt;/font&gt;" style="rounded=1;whiteSpace=wrap;html=1;fontSize=8;fontStyle=1" parent="1" vertex="1">
          <mxGeometry x="-355.5" y="4870" width="127.44" height="43.66" as="geometry" />
        </mxCell>
        <mxCell id="NwvVjqSKLJ-2JlfgX2zN-59" value="&lt;font style=&quot;font-size: 12px;&quot;&gt;GNSS通信&lt;/font&gt;&lt;div&gt;&lt;font style=&quot;font-size: 12px;&quot;&gt;（GPS+北斗）&lt;/font&gt;&lt;/div&gt;" style="rounded=1;whiteSpace=wrap;html=1;fontSize=8;fontStyle=1;fontColor=default;" parent="1" vertex="1">
          <mxGeometry x="-468.06" y="4974.345" width="108.06" height="43.31" as="geometry" />
        </mxCell>
        <mxCell id="NwvVjqSKLJ-2JlfgX2zN-69" value="&lt;font style=&quot;font-size: 20px;&quot;&gt;&lt;b&gt;云眼智查系统&lt;/b&gt;&lt;/font&gt;" style="text;html=1;align=center;verticalAlign=middle;whiteSpace=wrap;rounded=0;fontSize=10;fillColor=none;" parent="1" vertex="1">
          <mxGeometry x="-383.56" y="4800" width="175.06" height="30" as="geometry" />
        </mxCell>
        <mxCell id="GqFfri5IRmIPjRbaFfEC-1" style="edgeStyle=orthogonalEdgeStyle;rounded=0;orthogonalLoop=1;jettySize=auto;html=1;exitX=0.5;exitY=1;exitDx=0;exitDy=0;" edge="1" parent="1">
          <mxGeometry relative="1" as="geometry">
            <mxPoint x="-689.44" y="4920" as="sourcePoint" />
            <mxPoint x="-689.44" y="4920" as="targetPoint" />
          </mxGeometry>
        </mxCell>
        <mxCell id="GqFfri5IRmIPjRbaFfEC-3" value="&lt;div style=&quot;text-align: justify;&quot;&gt;&lt;ul&gt;&lt;li&gt;&lt;span style=&quot;background-color: transparent; color: light-dark(rgb(0, 0, 0), rgb(255, 255, 255));&quot;&gt;&lt;font&gt;IP67防水等级&lt;/font&gt;&lt;/span&gt;&lt;/li&gt;&lt;li&gt;&lt;span style=&quot;background-color: transparent; color: light-dark(rgb(0, 0, 0), rgb(255, 255, 255));&quot;&gt;&lt;font&gt;超长续航&lt;/font&gt;&lt;/span&gt;&lt;/li&gt;&lt;li&gt;&lt;span style=&quot;background-color: transparent; color: light-dark(rgb(0, 0, 0), rgb(255, 255, 255));&quot;&gt;&lt;font&gt;防暴力砸击&lt;/font&gt;&lt;/span&gt;&lt;/li&gt;&lt;li&gt;&lt;span style=&quot;background-color: transparent; color: light-dark(rgb(0, 0, 0), rgb(255, 255, 255));&quot;&gt;&lt;font&gt;ESP32智能省电，OTA&lt;/font&gt;&lt;/span&gt;&lt;/li&gt;&lt;/ul&gt;&lt;/div&gt;" style="text;html=1;align=center;verticalAlign=middle;whiteSpace=wrap;rounded=0;" vertex="1" parent="1">
          <mxGeometry x="-217.56" y="4875.5" width="173" height="30" as="geometry" />
        </mxCell>
        <mxCell id="GqFfri5IRmIPjRbaFfEC-4" value="&lt;span style=&quot;font-size: 12px;&quot;&gt;FRP内网穿透&lt;/span&gt;" style="rounded=1;whiteSpace=wrap;html=1;fontSize=8;fontStyle=1;fontColor=default;" vertex="1" parent="1">
          <mxGeometry x="-102.87" y="4974" width="89.81" height="44" as="geometry" />
        </mxCell>
        <mxCell id="GqFfri5IRmIPjRbaFfEC-5" value="&lt;font style=&quot;font-size: 12px;&quot;&gt;实时定位监控&lt;/font&gt;&lt;div&gt;&lt;font style=&quot;font-size: 12px;&quot;&gt;（电子围栏）&lt;/font&gt;&lt;/div&gt;" style="rounded=1;whiteSpace=wrap;html=1;fontSize=8;fontStyle=1;flipH=1;" vertex="1" parent="1">
          <mxGeometry x="-447" y="5100.31" width="111.94" height="39.38" as="geometry" />
        </mxCell>
        <mxCell id="GqFfri5IRmIPjRbaFfEC-6" value="&lt;span&gt;&lt;font style=&quot;font-size: 12px;&quot;&gt;历史记录加密存储不可修改&lt;/font&gt;&lt;/span&gt;" style="rounded=1;whiteSpace=wrap;html=1;fontSize=8;fontStyle=1" vertex="1" parent="1">
          <mxGeometry x="-383" y="5211" width="162.56" height="50" as="geometry" />
        </mxCell>
        <mxCell id="GqFfri5IRmIPjRbaFfEC-7" value="&lt;span&gt;&lt;font style=&quot;font-size: 12px;&quot;&gt;所有数据法院内本地存储&lt;/font&gt;&lt;/span&gt;" style="rounded=1;whiteSpace=wrap;html=1;fontSize=8;fontStyle=1" vertex="1" parent="1">
          <mxGeometry x="-200" y="5211" width="140" height="50" as="geometry" />
        </mxCell>
        <mxCell id="GqFfri5IRmIPjRbaFfEC-8" value="&lt;span style=&quot;font-size: 12px;&quot;&gt;大屏显示&lt;/span&gt;" style="rounded=1;whiteSpace=wrap;html=1;fontSize=8;fontStyle=1;flipH=1;" vertex="1" parent="1">
          <mxGeometry x="-576" y="5100.31" width="101.94" height="39.38" as="geometry" />
        </mxCell>
      </root>
    </mxGraphModel>
  </diagram>
</mxfile>
